<mxfile host="Electron" modified="2024-02-08T16:22:38.800Z" agent="Mozilla/5.0 (Macintosh; Intel Mac OS X 10_15_7) AppleWebKit/537.36 (KHTML, like Gecko) draw.io/23.0.2 Chrome/120.0.6099.109 Electron/28.1.0 Safari/537.36" etag="gxwXbByI0IVzlYdjoyga" version="23.0.2" type="device">
  <diagram id="prtHgNgQTEPvFCAcTncT" name="Page-1">
    <mxGraphModel dx="1563" dy="1970" grid="1" gridSize="10" guides="1" tooltips="1" connect="1" arrows="1" fold="1" page="1" pageScale="1" pageWidth="1169" pageHeight="827" math="0" shadow="0">
      <root>
        <mxCell id="0" />
        <mxCell id="1" parent="0" />
        <mxCell id="V1w6IO33_B5uVDaUKKrJ-1" value="&lt;p&gt;&lt;font style=&quot;font-size: 18px;&quot; color=&quot;#ffffff&quot;&gt;PI 27&lt;/font&gt;&lt;/p&gt;&lt;p style=&quot;line-height: 100%;&quot;&gt;&lt;span style=&quot;color: rgb(255, 255, 255); background-color: initial;&quot;&gt;&lt;font style=&quot;font-size: 14px;&quot;&gt;Ends: July 2025&lt;/font&gt;&lt;/span&gt;&lt;/p&gt;" style="rounded=0;whiteSpace=wrap;html=1;fillColor=#3aadbc;container=0;movable=0;resizable=0;rotatable=0;deletable=0;editable=0;locked=1;connectable=0;" parent="1" vertex="1">
          <mxGeometry x="2140.5" y="-20" width="330" height="60" as="geometry" />
        </mxCell>
        <mxCell id="V1w6IO33_B5uVDaUKKrJ-2" value="" style="rounded=0;whiteSpace=wrap;html=1;fillColor=#f5f5f5;fontColor=#333333;strokeColor=#666666;movable=0;resizable=0;rotatable=0;deletable=0;editable=0;locked=1;connectable=0;" parent="1" vertex="1">
          <mxGeometry x="2140.5" y="40" width="330" height="160" as="geometry" />
        </mxCell>
        <mxCell id="V1w6IO33_B5uVDaUKKrJ-3" value="" style="rounded=0;whiteSpace=wrap;html=1;fillColor=#f5f5f5;fontColor=#333333;strokeColor=#666666;movable=0;resizable=0;rotatable=0;deletable=0;editable=0;locked=1;connectable=0;" parent="1" vertex="1">
          <mxGeometry x="2140.5" y="200" width="330" height="190" as="geometry" />
        </mxCell>
        <mxCell id="V1w6IO33_B5uVDaUKKrJ-4" value="" style="rounded=0;whiteSpace=wrap;html=1;fillColor=#f5f5f5;fontColor=#333333;strokeColor=#666666;movable=0;resizable=0;rotatable=0;deletable=0;editable=0;locked=1;connectable=0;" parent="1" vertex="1">
          <mxGeometry x="2140.5" y="390" width="330" height="190" as="geometry" />
        </mxCell>
        <mxCell id="V1w6IO33_B5uVDaUKKrJ-5" value="" style="rounded=0;whiteSpace=wrap;html=1;fillColor=#f5f5f5;fontColor=#333333;strokeColor=#666666;movable=0;resizable=0;rotatable=0;deletable=0;editable=0;locked=1;connectable=0;" parent="1" vertex="1">
          <mxGeometry x="2140.5" y="580" width="330" height="370" as="geometry" />
        </mxCell>
        <mxCell id="V1w6IO33_B5uVDaUKKrJ-6" value="" style="rounded=0;whiteSpace=wrap;html=1;fillColor=#f5f5f5;fontColor=#333333;strokeColor=#666666;movable=0;resizable=0;rotatable=0;deletable=0;editable=0;locked=1;connectable=0;" parent="1" vertex="1">
          <mxGeometry x="2140.5" y="950" width="330" height="290" as="geometry" />
        </mxCell>
        <mxCell id="V1w6IO33_B5uVDaUKKrJ-7" value="" style="rounded=0;whiteSpace=wrap;html=1;fillColor=#f5f5f5;fontColor=#333333;strokeColor=#666666;movable=0;resizable=0;rotatable=0;deletable=0;editable=0;locked=1;connectable=0;" parent="1" vertex="1">
          <mxGeometry x="2140" y="1240" width="330" height="290" as="geometry" />
        </mxCell>
        <mxCell id="IgVnPN9NRSkrWdJgGA2A-25" value="" style="rounded=0;whiteSpace=wrap;html=1;fillColor=#f5f5f5;fontColor=#333333;strokeColor=#666666;movable=0;resizable=0;rotatable=0;deletable=0;editable=0;locked=1;connectable=0;" parent="1" vertex="1">
          <mxGeometry x="1480" y="580" width="330" height="370" as="geometry" />
        </mxCell>
        <mxCell id="IgVnPN9NRSkrWdJgGA2A-22" value="" style="rounded=0;whiteSpace=wrap;html=1;fillColor=#f5f5f5;fontColor=#333333;strokeColor=#666666;movable=0;resizable=0;rotatable=0;deletable=0;editable=0;locked=1;connectable=0;" parent="1" vertex="1">
          <mxGeometry x="1480" y="40" width="330" height="160" as="geometry" />
        </mxCell>
        <mxCell id="IgVnPN9NRSkrWdJgGA2A-24" value="" style="rounded=0;whiteSpace=wrap;html=1;fillColor=#f5f5f5;fontColor=#333333;strokeColor=#666666;movable=0;resizable=0;rotatable=0;deletable=0;editable=0;locked=1;connectable=0;" parent="1" vertex="1">
          <mxGeometry x="1480" y="390" width="330" height="190" as="geometry" />
        </mxCell>
        <mxCell id="IgVnPN9NRSkrWdJgGA2A-30" value="" style="rounded=0;whiteSpace=wrap;html=1;fillColor=#f5f5f5;fontColor=#333333;strokeColor=#666666;movable=0;resizable=0;rotatable=0;deletable=0;editable=0;locked=1;connectable=0;" parent="1" vertex="1">
          <mxGeometry x="1810" y="40" width="330" height="160" as="geometry" />
        </mxCell>
        <mxCell id="IgVnPN9NRSkrWdJgGA2A-31" value="" style="rounded=0;whiteSpace=wrap;html=1;fillColor=#f5f5f5;fontColor=#333333;strokeColor=#666666;movable=0;resizable=0;rotatable=0;deletable=0;editable=0;locked=1;connectable=0;" parent="1" vertex="1">
          <mxGeometry x="1810" y="200" width="330" height="190" as="geometry" />
        </mxCell>
        <mxCell id="IgVnPN9NRSkrWdJgGA2A-32" value="" style="rounded=0;whiteSpace=wrap;html=1;fillColor=#f5f5f5;fontColor=#333333;strokeColor=#666666;movable=0;resizable=0;rotatable=0;deletable=0;editable=0;locked=1;connectable=0;" parent="1" vertex="1">
          <mxGeometry x="1810" y="390" width="330" height="190" as="geometry" />
        </mxCell>
        <mxCell id="IgVnPN9NRSkrWdJgGA2A-33" value="" style="rounded=0;whiteSpace=wrap;html=1;fillColor=#f5f5f5;fontColor=#333333;strokeColor=#666666;movable=0;resizable=0;rotatable=0;deletable=0;editable=0;locked=1;connectable=0;" parent="1" vertex="1">
          <mxGeometry x="1810" y="580" width="330" height="370" as="geometry" />
        </mxCell>
        <mxCell id="IgVnPN9NRSkrWdJgGA2A-23" value="" style="rounded=0;whiteSpace=wrap;html=1;fillColor=#f5f5f5;fontColor=#333333;strokeColor=#666666;movable=0;resizable=0;rotatable=0;deletable=0;editable=0;locked=1;connectable=0;" parent="1" vertex="1">
          <mxGeometry x="1480" y="200" width="330" height="190" as="geometry" />
        </mxCell>
        <mxCell id="IgVnPN9NRSkrWdJgGA2A-58" value="Foundation:&lt;br style=&quot;border-color: var(--border-color);&quot;&gt;&lt;span style=&quot;&quot;&gt;Quality Product&lt;/span&gt;" style="rounded=0;whiteSpace=wrap;html=1;fontSize=18;fontStyle=1;startSize=100;horizontal=0;fontColor=#F16E81;movable=0;resizable=0;rotatable=0;deletable=0;editable=0;locked=1;connectable=0;" parent="1" vertex="1">
          <mxGeometry x="140" y="950" width="100" height="290" as="geometry" />
        </mxCell>
        <mxCell id="IgVnPN9NRSkrWdJgGA2A-10" value="" style="rounded=0;whiteSpace=wrap;html=1;fillColor=#f5f5f5;fontColor=#333333;strokeColor=#666666;movable=0;resizable=0;rotatable=0;deletable=0;editable=0;locked=1;connectable=0;" parent="1" vertex="1">
          <mxGeometry x="240" y="950" width="690" height="290" as="geometry" />
        </mxCell>
        <mxCell id="IgVnPN9NRSkrWdJgGA2A-18" value="" style="rounded=0;whiteSpace=wrap;html=1;fillColor=#f5f5f5;fontColor=#333333;strokeColor=#666666;movable=0;resizable=0;rotatable=0;deletable=0;editable=0;locked=1;connectable=0;" parent="1" vertex="1">
          <mxGeometry x="931" y="950" width="550" height="290" as="geometry" />
        </mxCell>
        <mxCell id="IgVnPN9NRSkrWdJgGA2A-34" value="" style="rounded=0;whiteSpace=wrap;html=1;fillColor=#f5f5f5;fontColor=#333333;strokeColor=#666666;movable=0;resizable=0;rotatable=0;deletable=0;editable=0;locked=1;connectable=0;" parent="1" vertex="1">
          <mxGeometry x="1810" y="950" width="330" height="290" as="geometry" />
        </mxCell>
        <mxCell id="IgVnPN9NRSkrWdJgGA2A-26" value="" style="rounded=0;whiteSpace=wrap;html=1;fillColor=#f5f5f5;fontColor=#333333;strokeColor=#666666;movable=0;resizable=0;rotatable=0;deletable=0;editable=0;locked=1;connectable=0;" parent="1" vertex="1">
          <mxGeometry x="1480" y="950" width="330" height="290" as="geometry" />
        </mxCell>
        <mxCell id="JybqgrPGp8Xl5-uRk0mp-5" value="" style="rounded=0;whiteSpace=wrap;html=1;fillColor=#f5f5f5;fontColor=#333333;strokeColor=#666666;movable=0;resizable=0;rotatable=0;deletable=0;editable=0;locked=1;connectable=0;" parent="1" vertex="1">
          <mxGeometry x="1479.5" y="1240" width="330" height="290" as="geometry" />
        </mxCell>
        <mxCell id="JybqgrPGp8Xl5-uRk0mp-6" value="" style="rounded=0;whiteSpace=wrap;html=1;fillColor=#f5f5f5;fontColor=#333333;strokeColor=#666666;movable=0;resizable=0;rotatable=0;deletable=0;editable=0;locked=1;connectable=0;" parent="1" vertex="1">
          <mxGeometry x="1809.5" y="1240" width="330" height="290" as="geometry" />
        </mxCell>
        <mxCell id="IgVnPN9NRSkrWdJgGA2A-7" value="" style="rounded=0;whiteSpace=wrap;html=1;fillColor=#f5f5f5;fontColor=#333333;strokeColor=#666666;movable=0;resizable=0;rotatable=0;deletable=0;editable=0;locked=1;connectable=0;" parent="1" vertex="1">
          <mxGeometry x="240" y="200" width="690" height="190" as="geometry" />
        </mxCell>
        <mxCell id="IgVnPN9NRSkrWdJgGA2A-5" value="" style="rounded=0;whiteSpace=wrap;html=1;fillColor=#f5f5f5;fontColor=#333333;strokeColor=#666666;movable=0;resizable=0;rotatable=0;deletable=0;editable=0;locked=1;connectable=0;" parent="1" vertex="1">
          <mxGeometry x="240" y="40" width="690" height="160" as="geometry" />
        </mxCell>
        <mxCell id="IgVnPN9NRSkrWdJgGA2A-14" value="&lt;p&gt;&lt;font style=&quot;font-size: 18px;&quot; color=&quot;#ffffff&quot;&gt;PI 24&lt;/font&gt;&lt;/p&gt;&lt;p style=&quot;line-height: 100%;&quot;&gt;&lt;span style=&quot;color: rgb(255, 255, 255); background-color: initial;&quot;&gt;&lt;font style=&quot;font-size: 14px;&quot;&gt;Ends: July 2024&lt;/font&gt;&lt;/span&gt;&lt;/p&gt;" style="rounded=0;whiteSpace=wrap;html=1;fillColor=#3aadbc;movable=1;resizable=1;rotatable=1;deletable=1;editable=1;locked=0;connectable=1;" parent="1" vertex="1">
          <mxGeometry x="931" y="-20" width="550" height="60" as="geometry" />
        </mxCell>
        <mxCell id="IgVnPN9NRSkrWdJgGA2A-6" value="&lt;p&gt;&lt;font style=&quot;font-size: 18px;&quot; color=&quot;#ffffff&quot;&gt;PI 23&lt;/font&gt;&lt;/p&gt;&lt;p style=&quot;line-height: 100%;&quot;&gt;&lt;span style=&quot;color: rgb(255, 255, 255); background-color: initial;&quot;&gt;&lt;font style=&quot;font-size: 14px;&quot;&gt;Ends: March 2024&lt;/font&gt;&lt;/span&gt;&lt;/p&gt;" style="rounded=0;whiteSpace=wrap;html=1;fillColor=#3aadbc;movable=0;resizable=0;rotatable=0;deletable=0;editable=0;locked=1;connectable=0;" parent="1" vertex="1">
          <mxGeometry x="240" y="-20" width="690" height="60" as="geometry" />
        </mxCell>
        <mxCell id="IgVnPN9NRSkrWdJgGA2A-43" value="Mojaloop Releases" style="rounded=0;whiteSpace=wrap;html=1;fontSize=18;fontStyle=1;startSize=100;horizontal=0;fontColor=#2D9BF0;movable=0;resizable=0;rotatable=0;deletable=0;editable=0;locked=1;connectable=0;" parent="1" vertex="1">
          <mxGeometry x="140" y="40" width="100" height="160" as="geometry" />
        </mxCell>
        <mxCell id="IgVnPN9NRSkrWdJgGA2A-52" value="Pillar 1:&lt;br style=&quot;border-color: var(--border-color);&quot;&gt;&lt;span style=&quot;&quot;&gt;Make Adoption&lt;/span&gt;&lt;br style=&quot;border-color: var(--border-color);&quot;&gt;&lt;span style=&quot;&quot;&gt;Easier&lt;/span&gt;" style="rounded=0;whiteSpace=wrap;html=1;fontSize=18;fontStyle=1;startSize=100;horizontal=0;fontColor=#F14725;movable=0;resizable=0;rotatable=0;deletable=0;editable=0;locked=1;connectable=0;" parent="1" vertex="1">
          <mxGeometry x="140" y="200" width="100" height="190" as="geometry" />
        </mxCell>
        <mxCell id="IgVnPN9NRSkrWdJgGA2A-54" value="&lt;font color=&quot;#eea213&quot;&gt;Pillar 2:&lt;br style=&quot;border-color: var(--border-color);&quot;&gt;Achieve Scale&lt;/font&gt;" style="rounded=0;whiteSpace=wrap;html=1;fontSize=18;fontStyle=1;startSize=100;horizontal=0;fontColor=#F14725;movable=0;resizable=0;rotatable=0;deletable=0;editable=0;locked=1;connectable=0;" parent="1" vertex="1">
          <mxGeometry x="140" y="390" width="100" height="190" as="geometry" />
        </mxCell>
        <mxCell id="IgVnPN9NRSkrWdJgGA2A-56" value="Pillar 3:&lt;br style=&quot;border-color: var(--border-color);&quot;&gt;&lt;span style=&quot;&quot;&gt;Connect to Other Systems&lt;/span&gt;" style="rounded=0;whiteSpace=wrap;html=1;fontSize=18;fontStyle=1;startSize=100;horizontal=0;fontColor=#8FD14F;movable=0;resizable=0;rotatable=0;deletable=0;editable=0;locked=1;connectable=0;" parent="1" vertex="1">
          <mxGeometry x="140" y="580" width="100" height="370" as="geometry" />
        </mxCell>
        <mxCell id="IgVnPN9NRSkrWdJgGA2A-8" value="" style="rounded=0;whiteSpace=wrap;html=1;fillColor=#f5f5f5;fontColor=#333333;strokeColor=#666666;movable=0;resizable=0;rotatable=0;deletable=0;editable=0;locked=1;connectable=0;" parent="1" vertex="1">
          <mxGeometry x="240" y="390" width="690" height="190" as="geometry" />
        </mxCell>
        <mxCell id="IgVnPN9NRSkrWdJgGA2A-13" value="" style="rounded=0;whiteSpace=wrap;html=1;fillColor=#f5f5f5;fontColor=#333333;strokeColor=#666666;movable=0;resizable=0;rotatable=0;deletable=0;editable=0;locked=1;connectable=0;" parent="1" vertex="1">
          <mxGeometry x="931" y="40" width="550" height="160" as="geometry" />
        </mxCell>
        <mxCell id="IgVnPN9NRSkrWdJgGA2A-17" value="" style="rounded=0;whiteSpace=wrap;html=1;fillColor=#f5f5f5;fontColor=#333333;strokeColor=#666666;movable=0;resizable=0;rotatable=0;deletable=0;editable=0;locked=1;connectable=0;" parent="1" vertex="1">
          <mxGeometry x="931" y="580" width="550" height="370" as="geometry" />
        </mxCell>
        <mxCell id="IgVnPN9NRSkrWdJgGA2A-15" value="" style="rounded=0;whiteSpace=wrap;html=1;fillColor=#f5f5f5;fontColor=#333333;strokeColor=#666666;movable=0;resizable=0;rotatable=0;deletable=0;editable=0;locked=1;connectable=0;" parent="1" vertex="1">
          <mxGeometry x="931" y="200" width="550" height="190" as="geometry" />
        </mxCell>
        <mxCell id="IgVnPN9NRSkrWdJgGA2A-16" value="" style="rounded=0;whiteSpace=wrap;html=1;fillColor=#f5f5f5;fontColor=#333333;strokeColor=#666666;movable=0;resizable=0;rotatable=0;deletable=0;editable=0;locked=1;connectable=0;" parent="1" vertex="1">
          <mxGeometry x="931" y="390" width="550" height="190" as="geometry" />
        </mxCell>
        <mxCell id="IgVnPN9NRSkrWdJgGA2A-9" value="" style="rounded=0;whiteSpace=wrap;html=1;fillColor=#f5f5f5;fontColor=#333333;strokeColor=#666666;movable=0;resizable=0;rotatable=0;deletable=0;editable=0;locked=1;connectable=0;" parent="1" vertex="1">
          <mxGeometry x="240" y="580" width="690" height="370" as="geometry" />
        </mxCell>
        <mxCell id="IgVnPN9NRSkrWdJgGA2A-111" value="" style="edgeStyle=orthogonalEdgeStyle;rounded=0;orthogonalLoop=1;jettySize=auto;html=1;strokeWidth=1;exitX=0.127;exitY=0;exitDx=0;exitDy=0;exitPerimeter=0;entryX=0;entryY=0.5;entryDx=0;entryDy=0;startArrow=oval;startFill=1;" parent="1" source="IgVnPN9NRSkrWdJgGA2A-103" target="jTy2H-9CaO5OAL5QqozL-1" edge="1">
          <mxGeometry relative="1" as="geometry">
            <mxPoint x="804" y="1010" as="sourcePoint" />
            <mxPoint x="860" y="90" as="targetPoint" />
            <Array as="points">
              <mxPoint x="404" y="110" />
            </Array>
          </mxGeometry>
        </mxCell>
        <mxCell id="IgVnPN9NRSkrWdJgGA2A-106" style="edgeStyle=orthogonalEdgeStyle;rounded=0;orthogonalLoop=1;jettySize=auto;html=1;entryX=0.232;entryY=0.78;entryDx=0;entryDy=0;entryPerimeter=0;exitX=0.921;exitY=-0.114;exitDx=0;exitDy=0;exitPerimeter=0;strokeWidth=1;startArrow=oval;startFill=1;" parent="1" source="IgVnPN9NRSkrWdJgGA2A-104" target="IgVnPN9NRSkrWdJgGA2A-97" edge="1">
          <mxGeometry relative="1" as="geometry">
            <Array as="points">
              <mxPoint x="2374" y="132" />
            </Array>
          </mxGeometry>
        </mxCell>
        <mxCell id="IgVnPN9NRSkrWdJgGA2A-105" style="edgeStyle=orthogonalEdgeStyle;rounded=0;orthogonalLoop=1;jettySize=auto;html=1;entryX=0.164;entryY=0.651;entryDx=0;entryDy=0;entryPerimeter=0;strokeWidth=1;exitX=0.458;exitY=-0.025;exitDx=0;exitDy=0;exitPerimeter=0;startArrow=oval;startFill=1;" parent="1" source="IgVnPN9NRSkrWdJgGA2A-104" target="IgVnPN9NRSkrWdJgGA2A-89" edge="1">
          <mxGeometry relative="1" as="geometry">
            <mxPoint x="1477" y="1000" as="sourcePoint" />
            <Array as="points">
              <mxPoint x="1930" y="122" />
            </Array>
          </mxGeometry>
        </mxCell>
        <mxCell id="IgVnPN9NRSkrWdJgGA2A-61" value="Mojaloop Baobab" style="verticalLabelPosition=middle;verticalAlign=middle;html=1;shape=offPageConnector;rounded=1;size=0.5;fillColor=#2D9BF0;labelPosition=center;align=center;whiteSpace=wrap;spacingBottom=13;fontColor=#FFFFFF;fontStyle=1;fontSize=14;" parent="1" vertex="1">
          <mxGeometry x="1770" y="70" width="80" height="80" as="geometry" />
        </mxCell>
        <mxCell id="dNxyNK7c78bLwvsdeMH5-27" value="" style="edgeStyle=orthogonalEdgeStyle;rounded=0;orthogonalLoop=1;jettySize=auto;html=1;dashed=1;endArrow=none;endFill=0;" parent="1" edge="1">
          <mxGeometry relative="1" as="geometry">
            <mxPoint x="300" y="270" as="targetPoint" />
          </mxGeometry>
        </mxCell>
        <mxCell id="dNxyNK7c78bLwvsdeMH5-31" style="edgeStyle=orthogonalEdgeStyle;rounded=0;orthogonalLoop=1;jettySize=auto;html=1;endArrow=classic;endFill=1;" parent="1" edge="1">
          <mxGeometry relative="1" as="geometry">
            <mxPoint x="420" y="280" as="sourcePoint" />
          </mxGeometry>
        </mxCell>
        <mxCell id="dNxyNK7c78bLwvsdeMH5-35" style="edgeStyle=orthogonalEdgeStyle;rounded=0;orthogonalLoop=1;jettySize=auto;html=1;endArrow=classic;endFill=1;" parent="1" edge="1">
          <mxGeometry relative="1" as="geometry">
            <mxPoint x="690" y="460" as="targetPoint" />
          </mxGeometry>
        </mxCell>
        <mxCell id="dNxyNK7c78bLwvsdeMH5-38" style="edgeStyle=orthogonalEdgeStyle;rounded=0;orthogonalLoop=1;jettySize=auto;html=1;endArrow=classic;endFill=1;" parent="1" edge="1">
          <mxGeometry relative="1" as="geometry">
            <Array as="points">
              <mxPoint x="300" y="460" />
              <mxPoint x="520" y="460" />
            </Array>
            <mxPoint x="520" y="430" as="targetPoint" />
          </mxGeometry>
        </mxCell>
        <mxCell id="dNxyNK7c78bLwvsdeMH5-25" value="" style="edgeStyle=orthogonalEdgeStyle;rounded=0;orthogonalLoop=1;jettySize=auto;html=1;" parent="1" edge="1">
          <mxGeometry relative="1" as="geometry">
            <mxPoint x="260" y="180" as="targetPoint" />
          </mxGeometry>
        </mxCell>
        <mxCell id="dNxyNK7c78bLwvsdeMH5-33" value="" style="edgeStyle=orthogonalEdgeStyle;rounded=0;orthogonalLoop=1;jettySize=auto;html=1;endArrow=classic;endFill=1;" parent="1" edge="1">
          <mxGeometry relative="1" as="geometry">
            <mxPoint x="460" y="180" as="sourcePoint" />
          </mxGeometry>
        </mxCell>
        <mxCell id="dNxyNK7c78bLwvsdeMH5-37" value="" style="edgeStyle=orthogonalEdgeStyle;rounded=0;orthogonalLoop=1;jettySize=auto;html=1;endArrow=classic;endFill=1;" parent="1" edge="1">
          <mxGeometry relative="1" as="geometry">
            <mxPoint x="650" y="490" as="sourcePoint" />
          </mxGeometry>
        </mxCell>
        <mxCell id="dNxyNK7c78bLwvsdeMH5-29" value="" style="edgeStyle=orthogonalEdgeStyle;rounded=0;orthogonalLoop=1;jettySize=auto;html=1;endArrow=classic;endFill=1;" parent="1" edge="1">
          <mxGeometry relative="1" as="geometry">
            <mxPoint x="400" y="260" as="targetPoint" />
          </mxGeometry>
        </mxCell>
        <mxCell id="IgVnPN9NRSkrWdJgGA2A-1" value="Mojaloop Zambezi&lt;span style=&quot;white-space: pre; font-size: 14px;&quot;&gt;&#x9;&lt;/span&gt;" style="verticalLabelPosition=middle;verticalAlign=middle;html=1;shape=offPageConnector;rounded=1;size=0.5;fillColor=#2D9BF0;labelPosition=center;align=center;whiteSpace=wrap;spacingBottom=13;fontColor=#FFFFFF;fontStyle=1;fontSize=14;" parent="1" vertex="1">
          <mxGeometry x="890" y="70" width="80" height="80" as="geometry" />
        </mxCell>
        <mxCell id="IgVnPN9NRSkrWdJgGA2A-39" value="&lt;font color=&quot;#ffffff&quot; style=&quot;font-size: 14px;&quot;&gt;&lt;b style=&quot;font-size: 14px;&quot;&gt;Foreign Exchange&amp;nbsp;&lt;br style=&quot;font-size: 14px;&quot;&gt;(Limited: Payer does FX, single FXP)&lt;br style=&quot;font-size: 14px;&quot;&gt;&lt;/b&gt;&lt;/font&gt;" style="rounded=1;whiteSpace=wrap;html=1;fillColor=#8FD14F;fontSize=14;" parent="1" vertex="1">
          <mxGeometry x="250" y="650" width="270" height="40" as="geometry" />
        </mxCell>
        <mxCell id="pBIU8CeWxCqfokyOlO5Z-20" style="edgeStyle=orthogonalEdgeStyle;rounded=0;orthogonalLoop=1;jettySize=auto;html=1;entryX=0;entryY=0.5;entryDx=0;entryDy=0;" parent="1" source="IgVnPN9NRSkrWdJgGA2A-73" target="pBIU8CeWxCqfokyOlO5Z-19" edge="1">
          <mxGeometry relative="1" as="geometry">
            <Array as="points">
              <mxPoint x="810" y="910" />
              <mxPoint x="810" y="890" />
            </Array>
          </mxGeometry>
        </mxCell>
        <mxCell id="IgVnPN9NRSkrWdJgGA2A-73" value="&lt;font color=&quot;#ffffff&quot; style=&quot;font-size: 14px;&quot;&gt;&lt;b style=&quot;font-size: 14px;&quot;&gt;Next Gen Settlement, including Admin APIs&lt;br style=&quot;font-size: 14px;&quot;&gt;&lt;/b&gt;&lt;/font&gt;" style="rounded=1;whiteSpace=wrap;html=1;fillColor=#8FD14F;fontSize=14;" parent="1" vertex="1">
          <mxGeometry x="260" y="890" width="450" height="40" as="geometry" />
        </mxCell>
        <mxCell id="IgVnPN9NRSkrWdJgGA2A-60" value="Mojaloop Acacia" style="verticalLabelPosition=middle;verticalAlign=middle;html=1;shape=offPageConnector;rounded=1;size=0.5;fillColor=#2D9BF0;labelPosition=center;align=center;whiteSpace=wrap;spacingBottom=13;fontColor=#FFFFFF;fontStyle=1;fontSize=14;" parent="1" vertex="1">
          <mxGeometry x="210" y="70" width="80" height="80" as="geometry" />
        </mxCell>
        <mxCell id="IgVnPN9NRSkrWdJgGA2A-80" value="&lt;font color=&quot;#ffffff&quot; style=&quot;font-size: 14px;&quot;&gt;&lt;b style=&quot;font-size: 14px;&quot;&gt;Tigerbeetle&lt;/b&gt;&lt;/font&gt;" style="rounded=1;whiteSpace=wrap;html=1;fillColor=#F16E81;fontSize=14;" parent="1" vertex="1">
          <mxGeometry x="250" y="1020" width="410" height="40" as="geometry" />
        </mxCell>
        <mxCell id="IgVnPN9NRSkrWdJgGA2A-81" style="edgeStyle=orthogonalEdgeStyle;rounded=0;orthogonalLoop=1;jettySize=auto;html=1;entryX=0;entryY=0.5;entryDx=0;entryDy=0;strokeWidth=1;exitX=1;exitY=0.5;exitDx=0;exitDy=0;startArrow=oval;startFill=1;" parent="1" source="43MLDUuVcQ6IggmY8hbu-3" target="jTy2H-9CaO5OAL5QqozL-3" edge="1">
          <mxGeometry relative="1" as="geometry">
            <Array as="points">
              <mxPoint x="1400" y="620" />
              <mxPoint x="1400" y="110" />
            </Array>
          </mxGeometry>
        </mxCell>
        <mxCell id="IgVnPN9NRSkrWdJgGA2A-78" value="&lt;font color=&quot;#ffffff&quot; style=&quot;font-size: 14px;&quot;&gt;&lt;b style=&quot;font-size: 14px;&quot;&gt;Core Team&lt;br style=&quot;font-size: 14px;&quot;&gt;(vNext Codebase)&lt;br style=&quot;font-size: 14px;&quot;&gt;&lt;/b&gt;&lt;/font&gt;" style="rounded=1;whiteSpace=wrap;html=1;fillColor=#F16E81;fontSize=14;" parent="1" vertex="1">
          <mxGeometry x="1490" y="1120" width="960" height="40" as="geometry" />
        </mxCell>
        <mxCell id="IgVnPN9NRSkrWdJgGA2A-85" value="&lt;font color=&quot;#ffffff&quot; style=&quot;font-size: 14px;&quot;&gt;&lt;b style=&quot;font-size: 14px;&quot;&gt;Performance Characterisation&lt;/b&gt;&lt;/font&gt;" style="rounded=1;whiteSpace=wrap;html=1;fillColor=#F16E81;fontSize=14;" parent="1" vertex="1">
          <mxGeometry x="250" y="960" width="260" height="40" as="geometry" />
        </mxCell>
        <mxCell id="IgVnPN9NRSkrWdJgGA2A-88" style="edgeStyle=orthogonalEdgeStyle;rounded=0;orthogonalLoop=1;jettySize=auto;html=1;entryX=0;entryY=0.5;entryDx=0;entryDy=0;strokeWidth=1;exitX=1;exitY=0.5;exitDx=0;exitDy=0;startArrow=oval;startFill=1;" parent="1" source="IgVnPN9NRSkrWdJgGA2A-85" target="jTy2H-9CaO5OAL5QqozL-1" edge="1">
          <mxGeometry relative="1" as="geometry" />
        </mxCell>
        <mxCell id="IgVnPN9NRSkrWdJgGA2A-89" value="Mojaloop Meerkat" style="verticalLabelPosition=middle;verticalAlign=middle;html=1;shape=offPageConnector;rounded=1;size=0.5;fillColor=#2D9BF0;labelPosition=center;align=center;whiteSpace=wrap;spacingBottom=13;fontColor=#FFFFFF;fontStyle=1;fontSize=14;" parent="1" vertex="1">
          <mxGeometry x="2100" y="70" width="80" height="80" as="geometry" />
        </mxCell>
        <mxCell id="IgVnPN9NRSkrWdJgGA2A-95" style="edgeStyle=orthogonalEdgeStyle;rounded=0;orthogonalLoop=1;jettySize=auto;html=1;entryX=0;entryY=0.5;entryDx=0;entryDy=0;strokeWidth=1;startArrow=oval;startFill=1;exitX=0.513;exitY=-0.027;exitDx=0;exitDy=0;exitPerimeter=0;" parent="1" source="IgVnPN9NRSkrWdJgGA2A-40" target="IgVnPN9NRSkrWdJgGA2A-1" edge="1">
          <mxGeometry relative="1" as="geometry">
            <mxPoint x="878" y="940" as="sourcePoint" />
          </mxGeometry>
        </mxCell>
        <mxCell id="IgVnPN9NRSkrWdJgGA2A-96" style="edgeStyle=orthogonalEdgeStyle;rounded=0;orthogonalLoop=1;jettySize=auto;html=1;strokeWidth=1;exitX=0.459;exitY=-0.106;exitDx=0;exitDy=0;exitPerimeter=0;entryX=0.159;entryY=0.697;entryDx=0;entryDy=0;entryPerimeter=0;startArrow=oval;startFill=1;" parent="1" source="IgVnPN9NRSkrWdJgGA2A-78" target="IgVnPN9NRSkrWdJgGA2A-89" edge="1">
          <mxGeometry relative="1" as="geometry">
            <mxPoint x="1533" y="900" as="sourcePoint" />
            <mxPoint x="1534" y="130" as="targetPoint" />
            <Array as="points">
              <mxPoint x="1931" y="126" />
            </Array>
          </mxGeometry>
        </mxCell>
        <mxCell id="IgVnPN9NRSkrWdJgGA2A-97" value="Mojaloop Mekong" style="verticalLabelPosition=middle;verticalAlign=middle;html=1;shape=offPageConnector;rounded=1;size=0.5;fillColor=#2D9BF0;labelPosition=center;align=center;whiteSpace=wrap;spacingBottom=13;fontColor=#FFFFFF;fontStyle=1" parent="1" vertex="1">
          <mxGeometry x="2430" y="70" width="80" height="80" as="geometry" />
        </mxCell>
        <mxCell id="IgVnPN9NRSkrWdJgGA2A-98" style="edgeStyle=orthogonalEdgeStyle;rounded=0;orthogonalLoop=1;jettySize=auto;html=1;entryX=0.263;entryY=0.75;entryDx=0;entryDy=0;entryPerimeter=0;exitX=0.984;exitY=-0.046;exitDx=0;exitDy=0;exitPerimeter=0;strokeWidth=1;startArrow=oval;startFill=1;" parent="1" source="IgVnPN9NRSkrWdJgGA2A-78" target="IgVnPN9NRSkrWdJgGA2A-97" edge="1">
          <mxGeometry relative="1" as="geometry">
            <Array as="points">
              <mxPoint x="2435" y="130" />
            </Array>
          </mxGeometry>
        </mxCell>
        <mxCell id="IgVnPN9NRSkrWdJgGA2A-103" value="&lt;font color=&quot;#ffffff&quot; style=&quot;font-size: 14px;&quot;&gt;&lt;b style=&quot;font-size: 14px;&quot;&gt;Platform Quality and Security&lt;/b&gt;&lt;/font&gt;" style="rounded=1;whiteSpace=wrap;html=1;fillColor=#F16E81;fontSize=14;" parent="1" vertex="1">
          <mxGeometry x="250" y="1180" width="1210" height="40" as="geometry" />
        </mxCell>
        <mxCell id="IgVnPN9NRSkrWdJgGA2A-104" value="&lt;font color=&quot;#ffffff&quot; style=&quot;font-size: 14px;&quot;&gt;&lt;b style=&quot;font-size: 14px;&quot;&gt;Platform Quality and Security&lt;/b&gt;&lt;/font&gt;" style="rounded=1;whiteSpace=wrap;html=1;fillColor=#F16E81;fontSize=14;" parent="1" vertex="1">
          <mxGeometry x="1490" y="1180" width="960" height="40" as="geometry" />
        </mxCell>
        <mxCell id="IgVnPN9NRSkrWdJgGA2A-110" value="Mojaloop Roadmap, as at 8th February 2024&lt;br&gt;&lt;span style=&quot;font-weight: normal;&quot;&gt;&lt;font style=&quot;font-size: 18px;&quot;&gt;(cross-hatched workstreams not yet formally adopted, but prioritised by Product Council)&lt;/font&gt;&lt;/span&gt;" style="text;html=1;strokeColor=none;fillColor=none;align=left;verticalAlign=middle;whiteSpace=wrap;rounded=0;fontSize=24;fontStyle=1" parent="1" vertex="1">
          <mxGeometry x="240" y="-70" width="720" height="30" as="geometry" />
        </mxCell>
        <mxCell id="IgVnPN9NRSkrWdJgGA2A-68" style="edgeStyle=orthogonalEdgeStyle;rounded=0;orthogonalLoop=1;jettySize=auto;html=1;entryX=0;entryY=0.25;entryDx=0;entryDy=0;exitX=1;exitY=0.25;exitDx=0;exitDy=0;strokeWidth=1;strokeColor=default;startArrow=oval;startFill=1;" parent="1" source="IgVnPN9NRSkrWdJgGA2A-60" target="jTy2H-9CaO5OAL5QqozL-1" edge="1">
          <mxGeometry relative="1" as="geometry">
            <mxPoint x="455" y="660" as="sourcePoint" />
          </mxGeometry>
        </mxCell>
        <mxCell id="rpubGPMqXumcgfwPf0aL-1" style="edgeStyle=orthogonalEdgeStyle;rounded=0;orthogonalLoop=1;jettySize=auto;html=1;exitX=1;exitY=0.75;exitDx=0;exitDy=0;entryX=0;entryY=0.5;entryDx=0;entryDy=0;" edge="1" parent="1" source="IgVnPN9NRSkrWdJgGA2A-38" target="43MLDUuVcQ6IggmY8hbu-8">
          <mxGeometry relative="1" as="geometry">
            <Array as="points">
              <mxPoint x="890" y="491" />
              <mxPoint x="890" y="500" />
            </Array>
          </mxGeometry>
        </mxCell>
        <mxCell id="IgVnPN9NRSkrWdJgGA2A-116" style="edgeStyle=orthogonalEdgeStyle;rounded=0;orthogonalLoop=1;jettySize=auto;html=1;strokeWidth=1;entryX=0;entryY=0.25;entryDx=0;entryDy=0;exitX=1;exitY=0.25;exitDx=0;exitDy=0;" parent="1" source="jTy2H-9CaO5OAL5QqozL-1" target="IgVnPN9NRSkrWdJgGA2A-1" edge="1">
          <mxGeometry relative="1" as="geometry">
            <mxPoint x="610" y="90" as="sourcePoint" />
            <mxPoint x="860" y="90" as="targetPoint" />
          </mxGeometry>
        </mxCell>
        <mxCell id="IgVnPN9NRSkrWdJgGA2A-118" style="edgeStyle=orthogonalEdgeStyle;rounded=0;orthogonalLoop=1;jettySize=auto;html=1;strokeWidth=3;entryX=0;entryY=0.25;entryDx=0;entryDy=0;exitX=1;exitY=0.25;exitDx=0;exitDy=0;" parent="1" source="IgVnPN9NRSkrWdJgGA2A-89" target="IgVnPN9NRSkrWdJgGA2A-97" edge="1">
          <mxGeometry relative="1" as="geometry">
            <mxPoint x="1450" y="72" as="sourcePoint" />
            <mxPoint x="1700" y="72" as="targetPoint" />
          </mxGeometry>
        </mxCell>
        <mxCell id="IgVnPN9NRSkrWdJgGA2A-70" style="edgeStyle=orthogonalEdgeStyle;rounded=0;orthogonalLoop=1;jettySize=auto;html=1;entryX=0;entryY=0.5;entryDx=0;entryDy=0;strokeWidth=1;startArrow=oval;startFill=1;" parent="1" source="IgVnPN9NRSkrWdJgGA2A-39" target="IgVnPN9NRSkrWdJgGA2A-69" edge="1">
          <mxGeometry relative="1" as="geometry">
            <mxPoint x="710" y="690" as="targetPoint" />
            <Array as="points">
              <mxPoint x="550" y="670" />
              <mxPoint x="550" y="740" />
            </Array>
          </mxGeometry>
        </mxCell>
        <mxCell id="IgVnPN9NRSkrWdJgGA2A-41" style="edgeStyle=orthogonalEdgeStyle;rounded=0;orthogonalLoop=1;jettySize=auto;html=1;exitX=1;exitY=0.5;exitDx=0;exitDy=0;entryX=0;entryY=0.5;entryDx=0;entryDy=0;strokeWidth=1;startArrow=oval;startFill=1;" parent="1" source="IgVnPN9NRSkrWdJgGA2A-37" target="IgVnPN9NRSkrWdJgGA2A-1" edge="1">
          <mxGeometry relative="1" as="geometry">
            <Array as="points">
              <mxPoint x="800" y="250" />
              <mxPoint x="800" y="110" />
            </Array>
          </mxGeometry>
        </mxCell>
        <mxCell id="IgVnPN9NRSkrWdJgGA2A-66" style="edgeStyle=orthogonalEdgeStyle;rounded=0;orthogonalLoop=1;jettySize=auto;html=1;strokeWidth=1;startArrow=oval;startFill=1;exitX=1;exitY=0.25;exitDx=0;exitDy=0;" parent="1" source="IgVnPN9NRSkrWdJgGA2A-62" edge="1">
          <mxGeometry relative="1" as="geometry">
            <Array as="points">
              <mxPoint x="800" y="290" />
              <mxPoint x="800" y="110" />
            </Array>
            <mxPoint x="890" y="110" as="targetPoint" />
          </mxGeometry>
        </mxCell>
        <mxCell id="IgVnPN9NRSkrWdJgGA2A-74" style="edgeStyle=orthogonalEdgeStyle;rounded=0;orthogonalLoop=1;jettySize=auto;html=1;entryX=0;entryY=0.25;entryDx=0;entryDy=0;exitX=1;exitY=0.75;exitDx=0;exitDy=0;strokeWidth=1;startArrow=oval;startFill=1;" parent="1" source="IgVnPN9NRSkrWdJgGA2A-73" target="IgVnPN9NRSkrWdJgGA2A-61" edge="1">
          <mxGeometry relative="1" as="geometry">
            <Array as="points">
              <mxPoint x="1730" y="920" />
              <mxPoint x="1730" y="90" />
            </Array>
          </mxGeometry>
        </mxCell>
        <mxCell id="IgVnPN9NRSkrWdJgGA2A-67" style="edgeStyle=orthogonalEdgeStyle;rounded=0;orthogonalLoop=1;jettySize=auto;html=1;entryX=0;entryY=0.5;entryDx=0;entryDy=0;strokeWidth=1;startArrow=oval;startFill=1;exitX=1;exitY=0.25;exitDx=0;exitDy=0;" parent="1" source="IgVnPN9NRSkrWdJgGA2A-38" target="IgVnPN9NRSkrWdJgGA2A-1" edge="1">
          <mxGeometry relative="1" as="geometry">
            <Array as="points">
              <mxPoint x="860" y="470" />
              <mxPoint x="860" y="110" />
            </Array>
          </mxGeometry>
        </mxCell>
        <mxCell id="JybqgrPGp8Xl5-uRk0mp-1" value="&lt;font color=&quot;#0000cc&quot;&gt;Strategic Workstreams&lt;/font&gt;" style="rounded=0;whiteSpace=wrap;html=1;fontSize=18;fontStyle=1;startSize=100;horizontal=0;fontColor=#F16E81;movable=0;resizable=0;rotatable=0;deletable=0;editable=0;locked=1;connectable=0;" parent="1" vertex="1">
          <mxGeometry x="140" y="1240" width="100" height="290" as="geometry" />
        </mxCell>
        <mxCell id="JybqgrPGp8Xl5-uRk0mp-3" value="" style="rounded=0;whiteSpace=wrap;html=1;fillColor=#f5f5f5;fontColor=#333333;strokeColor=#666666;movable=0;resizable=0;rotatable=0;deletable=0;editable=0;locked=1;connectable=0;" parent="1" vertex="1">
          <mxGeometry x="240" y="1240" width="690" height="290" as="geometry" />
        </mxCell>
        <mxCell id="JybqgrPGp8Xl5-uRk0mp-4" value="" style="rounded=0;whiteSpace=wrap;html=1;fillColor=#f5f5f5;fontColor=#333333;strokeColor=#666666;movable=0;resizable=0;rotatable=0;deletable=0;editable=0;locked=1;connectable=0;" parent="1" vertex="1">
          <mxGeometry x="931" y="1240" width="550" height="290" as="geometry" />
        </mxCell>
        <mxCell id="IgVnPN9NRSkrWdJgGA2A-69" value="&lt;font color=&quot;#ffffff&quot; style=&quot;font-size: 14px;&quot;&gt;&lt;b style=&quot;font-size: 14px;&quot;&gt;Foreign Exchange&amp;nbsp;&lt;br style=&quot;font-size: 14px;&quot;&gt;(vNow)&lt;br style=&quot;font-size: 14px;&quot;&gt;&lt;/b&gt;&lt;/font&gt;" style="rounded=1;whiteSpace=wrap;html=1;fillColor=#8FD14F;fontSize=14;" parent="1" vertex="1">
          <mxGeometry x="560" y="720" width="270" height="40" as="geometry" />
        </mxCell>
        <mxCell id="JybqgrPGp8Xl5-uRk0mp-8" value="&lt;font color=&quot;#ffffff&quot; style=&quot;font-size: 14px;&quot;&gt;&lt;b style=&quot;font-size: 14px;&quot;&gt;Cross-Border SIG&lt;/b&gt;&lt;/font&gt;" style="rounded=1;whiteSpace=wrap;html=1;fillColor=#0000CC;fontSize=14;movable=1;resizable=1;rotatable=1;deletable=1;editable=1;locked=0;connectable=1;" parent="1" vertex="1">
          <mxGeometry x="250" y="1260" width="2200" height="40" as="geometry" />
        </mxCell>
        <mxCell id="JybqgrPGp8Xl5-uRk0mp-9" value="&lt;font color=&quot;#ffffff&quot; style=&quot;font-size: 14px;&quot;&gt;&lt;b style=&quot;font-size: 14px;&quot;&gt;Interledger Updates&lt;/b&gt;&lt;/font&gt;" style="rounded=1;whiteSpace=wrap;html=1;fillColor=#0000CC;fontSize=14;movable=1;resizable=1;rotatable=1;deletable=1;editable=1;locked=0;connectable=1;" parent="1" vertex="1">
          <mxGeometry x="250" y="1315" width="2200" height="40" as="geometry" />
        </mxCell>
        <mxCell id="JybqgrPGp8Xl5-uRk0mp-10" value="&lt;font color=&quot;#ffffff&quot; style=&quot;font-size: 14px;&quot;&gt;&lt;b style=&quot;font-size: 14px;&quot;&gt;International Payments Addressing&lt;/b&gt;&lt;/font&gt;" style="rounded=1;whiteSpace=wrap;html=1;fillColor=#0000CC;fontSize=14;movable=1;resizable=1;rotatable=1;deletable=1;editable=1;locked=0;connectable=1;" parent="1" vertex="1">
          <mxGeometry x="250" y="1370" width="2200" height="40" as="geometry" />
        </mxCell>
        <mxCell id="JybqgrPGp8Xl5-uRk0mp-11" value="&lt;font color=&quot;#ffffff&quot; style=&quot;font-size: 14px;&quot;&gt;&lt;b style=&quot;font-size: 14px;&quot;&gt;ISO 20022&lt;/b&gt;&lt;/font&gt;" style="rounded=1;whiteSpace=wrap;html=1;fillColor=#0000CC;fontSize=14;movable=1;resizable=1;rotatable=1;deletable=1;editable=1;locked=0;connectable=1;" parent="1" vertex="1">
          <mxGeometry x="250" y="1425" width="2200" height="40" as="geometry" />
        </mxCell>
        <mxCell id="JybqgrPGp8Xl5-uRk0mp-12" value="&lt;font color=&quot;#ffffff&quot; style=&quot;font-size: 14px;&quot;&gt;&lt;b style=&quot;font-size: 14px;&quot;&gt;Foreign Exchange Support&lt;/b&gt;&lt;/font&gt;" style="rounded=1;whiteSpace=wrap;html=1;fillColor=#0000CC;fontSize=14;movable=1;resizable=1;rotatable=1;deletable=1;editable=1;locked=0;connectable=1;" parent="1" vertex="1">
          <mxGeometry x="250" y="1480" width="2200" height="40" as="geometry" />
        </mxCell>
        <mxCell id="icjRPEchNrs7mkZ5rn7Y-2" value="" style="edgeStyle=orthogonalEdgeStyle;rounded=0;orthogonalLoop=1;jettySize=auto;html=1;entryX=0;entryY=0.5;entryDx=0;entryDy=0;exitX=1;exitY=0.25;exitDx=0;exitDy=0;strokeWidth=1;startArrow=oval;startFill=1;" parent="1" source="IgVnPN9NRSkrWdJgGA2A-69" target="IgVnPN9NRSkrWdJgGA2A-1" edge="1">
          <mxGeometry relative="1" as="geometry">
            <mxPoint x="980" y="681" as="sourcePoint" />
            <mxPoint x="930" y="118" as="targetPoint" />
          </mxGeometry>
        </mxCell>
        <mxCell id="IgVnPN9NRSkrWdJgGA2A-76" style="edgeStyle=orthogonalEdgeStyle;rounded=0;orthogonalLoop=1;jettySize=auto;html=1;entryX=0;entryY=0.5;entryDx=0;entryDy=0;exitX=1;exitY=0.5;exitDx=0;exitDy=0;strokeWidth=1;startArrow=oval;startFill=1;" parent="1" source="IgVnPN9NRSkrWdJgGA2A-75" target="IgVnPN9NRSkrWdJgGA2A-1" edge="1">
          <mxGeometry relative="1" as="geometry">
            <Array as="points">
              <mxPoint x="860" y="620" />
              <mxPoint x="860" y="110" />
            </Array>
          </mxGeometry>
        </mxCell>
        <mxCell id="43MLDUuVcQ6IggmY8hbu-4" value="&lt;font style=&quot;font-size: 14px;&quot;&gt;&lt;b style=&quot;font-size: 14px;&quot;&gt;CNPs for SWIFT, Nexus&lt;br style=&quot;font-size: 14px;&quot;&gt;&lt;/b&gt;&lt;/font&gt;" style="rounded=1;whiteSpace=wrap;html=1;fillColor=#8FD14F;fontSize=14;sketch=1;curveFitting=1;jiggle=2;fontColor=#000000;" parent="1" vertex="1">
          <mxGeometry x="1500" y="630" width="309" height="40" as="geometry" />
        </mxCell>
        <mxCell id="43MLDUuVcQ6IggmY8hbu-5" value="&lt;font style=&quot;font-size: 14px;&quot;&gt;&lt;b style=&quot;font-size: 14px;&quot;&gt;Native ISO 20022&lt;br style=&quot;font-size: 14px;&quot;&gt;&lt;/b&gt;&lt;/font&gt;" style="rounded=1;whiteSpace=wrap;html=1;fillColor=#8FD14F;fontSize=14;sketch=1;curveFitting=1;jiggle=2;fontColor=#000000;" parent="1" vertex="1">
          <mxGeometry x="1500" y="681" width="720" height="40" as="geometry" />
        </mxCell>
        <mxCell id="43MLDUuVcQ6IggmY8hbu-6" value="&lt;font style=&quot;font-size: 14px;&quot;&gt;&lt;b style=&quot;font-size: 14px;&quot;&gt;Azure Deployment Tools&lt;/b&gt;&lt;/font&gt;" style="rounded=1;whiteSpace=wrap;html=1;fillColor=#F14725;fontSize=14;gradientColor=none;glass=0;shadow=0;sketch=1;curveFitting=1;jiggle=2;fontColor=#000000;" parent="1" vertex="1">
          <mxGeometry x="250" y="340" width="520" height="40" as="geometry" />
        </mxCell>
        <mxCell id="43MLDUuVcQ6IggmY8hbu-7" value="&lt;font style=&quot;font-size: 14px;&quot;&gt;&lt;b style=&quot;font-size: 14px;&quot;&gt;Support for domestic debit (domestic and international payment schemes)&lt;br style=&quot;font-size: 14px;&quot;&gt;&lt;/b&gt;&lt;/font&gt;" style="rounded=1;whiteSpace=wrap;html=1;fillColor=#8FD14F;fontSize=14;sketch=1;curveFitting=1;jiggle=2;fontColor=#000000;" parent="1" vertex="1">
          <mxGeometry x="1500" y="730" width="730" height="40" as="geometry" />
        </mxCell>
        <mxCell id="43MLDUuVcQ6IggmY8hbu-8" value="&lt;font style=&quot;font-size: 14px;&quot;&gt;&lt;b style=&quot;font-size: 14px;&quot;&gt;PISP: MRTP, Bulk, Bill Payments&lt;br&gt;QR-Based Payments&lt;br&gt;&lt;/b&gt;&lt;/font&gt;" style="rounded=1;whiteSpace=wrap;html=1;fillColor=#EEA213;fontSize=14;sketch=1;curveFitting=1;jiggle=2;fontColor=#000000;" parent="1" vertex="1">
          <mxGeometry x="960" y="479.22" width="400" height="40.78" as="geometry" />
        </mxCell>
        <mxCell id="43MLDUuVcQ6IggmY8hbu-10" value="&lt;font style=&quot;font-size: 14px;&quot;&gt;&lt;b style=&quot;font-size: 14px;&quot;&gt;AISP Support&lt;br&gt;(Build on PISP foundation)&lt;br&gt;&lt;/b&gt;&lt;/font&gt;" style="rounded=1;whiteSpace=wrap;html=1;fillColor=#EEA213;fontSize=14;sketch=1;curveFitting=1;jiggle=2;fontColor=#000000;spacingRight=36;" parent="1" vertex="1">
          <mxGeometry x="1500" y="510" width="360" height="40.78" as="geometry" />
        </mxCell>
        <mxCell id="43MLDUuVcQ6IggmY8hbu-11" value="&lt;font style=&quot;font-size: 14px;&quot;&gt;&lt;b style=&quot;font-size: 14px;&quot;&gt;Localisation for Hub Operator and Participants: Language, Timezone&lt;/b&gt;&lt;/font&gt;" style="rounded=1;whiteSpace=wrap;html=1;fillColor=#F16E81;fontSize=14;fontColor=#000000;sketch=1;curveFitting=1;jiggle=2;" parent="1" vertex="1">
          <mxGeometry x="950" y="970" width="470" height="40" as="geometry" />
        </mxCell>
        <mxCell id="rzV6h1TZmgZD2reJMD9--1" style="edgeStyle=orthogonalEdgeStyle;rounded=0;orthogonalLoop=1;jettySize=auto;html=1;strokeWidth=1;startArrow=oval;startFill=1;exitX=1;exitY=0.5;exitDx=0;exitDy=0;strokeColor=#B3B3B3;entryX=0.063;entryY=0.588;entryDx=0;entryDy=0;entryPerimeter=0;" parent="1" source="43MLDUuVcQ6IggmY8hbu-6" target="IgVnPN9NRSkrWdJgGA2A-1" edge="1">
          <mxGeometry relative="1" as="geometry">
            <Array as="points">
              <mxPoint x="860" y="360" />
              <mxPoint x="860" y="117" />
            </Array>
            <mxPoint x="780" y="490" as="sourcePoint" />
            <mxPoint x="890" y="150" as="targetPoint" />
          </mxGeometry>
        </mxCell>
        <mxCell id="rzV6h1TZmgZD2reJMD9--3" style="edgeStyle=orthogonalEdgeStyle;rounded=0;orthogonalLoop=1;jettySize=auto;html=1;entryX=0;entryY=0.5;entryDx=0;entryDy=0;strokeWidth=3;startArrow=oval;startFill=1;exitX=1;exitY=0.5;exitDx=0;exitDy=0;strokeColor=#B3B3B3;" parent="1" source="43MLDUuVcQ6IggmY8hbu-1" target="IgVnPN9NRSkrWdJgGA2A-89" edge="1">
          <mxGeometry relative="1" as="geometry">
            <Array as="points">
              <mxPoint x="1890" y="330" />
              <mxPoint x="1890" y="110" />
            </Array>
            <mxPoint x="1440" y="260" as="sourcePoint" />
            <mxPoint x="1530" y="120" as="targetPoint" />
          </mxGeometry>
        </mxCell>
        <mxCell id="rzV6h1TZmgZD2reJMD9--5" style="edgeStyle=orthogonalEdgeStyle;rounded=0;orthogonalLoop=1;jettySize=auto;html=1;entryX=0;entryY=0.5;entryDx=0;entryDy=0;strokeWidth=3;startArrow=oval;startFill=1;exitX=1;exitY=0.5;exitDx=0;exitDy=0;strokeColor=#B3B3B3;" parent="1" source="43MLDUuVcQ6IggmY8hbu-10" target="IgVnPN9NRSkrWdJgGA2A-97" edge="1">
          <mxGeometry relative="1" as="geometry">
            <Array as="points">
              <mxPoint x="2290" y="530" />
              <mxPoint x="2290" y="110" />
            </Array>
            <mxPoint x="1440" y="340" as="sourcePoint" />
            <mxPoint x="1530" y="120" as="targetPoint" />
          </mxGeometry>
        </mxCell>
        <mxCell id="rzV6h1TZmgZD2reJMD9--6" style="edgeStyle=orthogonalEdgeStyle;rounded=0;orthogonalLoop=1;jettySize=auto;html=1;entryX=0;entryY=0.5;entryDx=0;entryDy=0;strokeWidth=3;startArrow=oval;startFill=1;exitX=1;exitY=0.5;exitDx=0;exitDy=0;strokeColor=#B3B3B3;" parent="1" source="43MLDUuVcQ6IggmY8hbu-8" target="jTy2H-9CaO5OAL5QqozL-3" edge="1">
          <mxGeometry relative="1" as="geometry">
            <mxPoint x="1440" y="340" as="sourcePoint" />
            <mxPoint x="1530" y="120" as="targetPoint" />
          </mxGeometry>
        </mxCell>
        <mxCell id="8J58_Y2sF6cBrynNF3AU-2" style="edgeStyle=orthogonalEdgeStyle;rounded=0;orthogonalLoop=1;jettySize=auto;html=1;strokeWidth=3;startArrow=oval;startFill=1;exitX=1;exitY=0.75;exitDx=0;exitDy=0;strokeColor=#B3B3B3;entryX=0;entryY=0.25;entryDx=0;entryDy=0;" parent="1" source="43MLDUuVcQ6IggmY8hbu-3" edge="1" target="43MLDUuVcQ6IggmY8hbu-4">
          <mxGeometry relative="1" as="geometry">
            <mxPoint x="1410" y="620" as="sourcePoint" />
            <mxPoint x="1480" y="630" as="targetPoint" />
          </mxGeometry>
        </mxCell>
        <mxCell id="8J58_Y2sF6cBrynNF3AU-3" style="edgeStyle=orthogonalEdgeStyle;rounded=0;orthogonalLoop=1;jettySize=auto;html=1;entryX=0;entryY=0.5;entryDx=0;entryDy=0;strokeWidth=3;startArrow=oval;startFill=1;exitX=1;exitY=0.5;exitDx=0;exitDy=0;strokeColor=#B3B3B3;" parent="1" source="43MLDUuVcQ6IggmY8hbu-4" target="IgVnPN9NRSkrWdJgGA2A-89" edge="1">
          <mxGeometry relative="1" as="geometry">
            <Array as="points">
              <mxPoint x="1890" y="650" />
              <mxPoint x="1890" y="110" />
            </Array>
            <mxPoint x="1745" y="540" as="sourcePoint" />
            <mxPoint x="1860" y="120" as="targetPoint" />
          </mxGeometry>
        </mxCell>
        <mxCell id="8J58_Y2sF6cBrynNF3AU-4" style="edgeStyle=orthogonalEdgeStyle;rounded=0;orthogonalLoop=1;jettySize=auto;html=1;entryX=0;entryY=0.5;entryDx=0;entryDy=0;strokeWidth=3;startArrow=oval;startFill=1;exitX=1;exitY=0.5;exitDx=0;exitDy=0;strokeColor=#B3B3B3;" parent="1" source="43MLDUuVcQ6IggmY8hbu-5" target="IgVnPN9NRSkrWdJgGA2A-97" edge="1">
          <mxGeometry relative="1" as="geometry">
            <mxPoint x="1770" y="630" as="sourcePoint" />
            <mxPoint x="1860" y="120" as="targetPoint" />
            <Array as="points">
              <mxPoint x="2290" y="701" />
              <mxPoint x="2290" y="110" />
            </Array>
          </mxGeometry>
        </mxCell>
        <mxCell id="8J58_Y2sF6cBrynNF3AU-5" style="edgeStyle=orthogonalEdgeStyle;rounded=0;orthogonalLoop=1;jettySize=auto;html=1;entryX=0;entryY=0.5;entryDx=0;entryDy=0;strokeWidth=3;startArrow=oval;startFill=1;strokeColor=#B3B3B3;exitX=1;exitY=0.5;exitDx=0;exitDy=0;" parent="1" source="43MLDUuVcQ6IggmY8hbu-7" target="IgVnPN9NRSkrWdJgGA2A-97" edge="1">
          <mxGeometry relative="1" as="geometry">
            <mxPoint x="1920" y="820" as="sourcePoint" />
            <mxPoint x="1860" y="130" as="targetPoint" />
            <Array as="points">
              <mxPoint x="2290" y="750" />
              <mxPoint x="2290" y="110" />
            </Array>
          </mxGeometry>
        </mxCell>
        <mxCell id="jTy2H-9CaO5OAL5QqozL-2" value="" style="edgeStyle=orthogonalEdgeStyle;rounded=0;orthogonalLoop=1;jettySize=auto;html=1;entryX=0;entryY=0.25;entryDx=0;entryDy=0;exitX=1;exitY=0.25;exitDx=0;exitDy=0;strokeWidth=1;strokeColor=default;startArrow=oval;startFill=1;" parent="1" source="IgVnPN9NRSkrWdJgGA2A-1" target="jTy2H-9CaO5OAL5QqozL-3" edge="1">
          <mxGeometry relative="1" as="geometry">
            <mxPoint x="660" y="671" as="sourcePoint" />
            <mxPoint x="290" y="112" as="targetPoint" />
          </mxGeometry>
        </mxCell>
        <mxCell id="jTy2H-9CaO5OAL5QqozL-1" value="Mojaloop Congo" style="verticalLabelPosition=middle;verticalAlign=middle;html=1;shape=offPageConnector;rounded=1;size=0.5;fillColor=#2D9BF0;labelPosition=center;align=center;whiteSpace=wrap;spacingBottom=13;fontColor=#FFFFFF;fontStyle=1;fontSize=14;" parent="1" vertex="1">
          <mxGeometry x="560" y="70" width="80" height="80" as="geometry" />
        </mxCell>
        <mxCell id="jTy2H-9CaO5OAL5QqozL-4" value="" style="edgeStyle=orthogonalEdgeStyle;rounded=0;orthogonalLoop=1;jettySize=auto;html=1;entryX=0;entryY=0.5;entryDx=0;entryDy=0;exitX=1;exitY=0.25;exitDx=0;exitDy=0;strokeWidth=1;strokeColor=default;startArrow=oval;startFill=1;" parent="1" source="IgVnPN9NRSkrWdJgGA2A-39" target="IgVnPN9NRSkrWdJgGA2A-1" edge="1">
          <mxGeometry relative="1" as="geometry">
            <mxPoint x="660" y="671" as="sourcePoint" />
            <mxPoint x="440" y="100" as="targetPoint" />
          </mxGeometry>
        </mxCell>
        <mxCell id="jTy2H-9CaO5OAL5QqozL-3" value="Mojaloop Limpopo" style="verticalLabelPosition=middle;verticalAlign=middle;html=1;shape=offPageConnector;rounded=1;size=0.5;fillColor=#2D9BF0;labelPosition=center;align=center;whiteSpace=wrap;spacingBottom=13;fontColor=#FFFFFF;fontStyle=1;fontSize=14;" parent="1" vertex="1">
          <mxGeometry x="1435" y="70" width="80" height="80" as="geometry" />
        </mxCell>
        <mxCell id="pBIU8CeWxCqfokyOlO5Z-6" style="edgeStyle=orthogonalEdgeStyle;rounded=0;orthogonalLoop=1;jettySize=auto;html=1;entryX=0;entryY=0.5;entryDx=0;entryDy=0;exitX=1;exitY=0.75;exitDx=0;exitDy=0;" parent="1" source="pBIU8CeWxCqfokyOlO5Z-2" target="43MLDUuVcQ6IggmY8hbu-8" edge="1">
          <mxGeometry relative="1" as="geometry">
            <Array as="points">
              <mxPoint x="890" y="551" />
              <mxPoint x="890" y="500" />
            </Array>
          </mxGeometry>
        </mxCell>
        <mxCell id="pBIU8CeWxCqfokyOlO5Z-2" value="&lt;b&gt;PISP V2.0&lt;/b&gt;" style="rounded=1;whiteSpace=wrap;html=1;fillColor=#EEA213;fontSize=14;sketch=1;curveFitting=1;jiggle=2;fontColor=#000000;" parent="1" vertex="1">
          <mxGeometry x="400" y="520" width="430" height="40.78" as="geometry" />
        </mxCell>
        <mxCell id="pBIU8CeWxCqfokyOlO5Z-3" value="Batching fixes/performance enhancements, plus various maintenance updates" style="rounded=0;whiteSpace=wrap;html=1;" parent="1" vertex="1">
          <mxGeometry x="520" y="125" width="160" height="60" as="geometry" />
        </mxCell>
        <mxCell id="pBIU8CeWxCqfokyOlO5Z-5" value="" style="edgeStyle=orthogonalEdgeStyle;rounded=0;orthogonalLoop=1;jettySize=auto;html=1;exitX=1;exitY=0.25;exitDx=0;exitDy=0;strokeWidth=1;startArrow=oval;startFill=1;entryX=0;entryY=0.25;entryDx=0;entryDy=0;" parent="1" source="pBIU8CeWxCqfokyOlO5Z-1" target="IgVnPN9NRSkrWdJgGA2A-61" edge="1">
          <mxGeometry relative="1" as="geometry">
            <mxPoint x="970.0000000000005" y="800" as="sourcePoint" />
            <mxPoint x="1439.9999999999995" y="96.99999999999977" as="targetPoint" />
            <Array as="points">
              <mxPoint x="1730" y="783" />
              <mxPoint x="1730" y="90" />
            </Array>
          </mxGeometry>
        </mxCell>
        <mxCell id="pBIU8CeWxCqfokyOlO5Z-8" value="" style="edgeStyle=orthogonalEdgeStyle;rounded=0;orthogonalLoop=1;jettySize=auto;html=1;strokeWidth=3;startArrow=oval;startFill=1;exitX=1;exitY=0.5;exitDx=0;exitDy=0;strokeColor=#B3B3B3;entryX=0;entryY=0.25;entryDx=0;entryDy=0;" parent="1" source="43MLDUuVcQ6IggmY8hbu-11" target="IgVnPN9NRSkrWdJgGA2A-61" edge="1">
          <mxGeometry relative="1" as="geometry">
            <mxPoint x="1430" y="820" as="sourcePoint" />
            <mxPoint x="1440" y="90" as="targetPoint" />
            <Array as="points">
              <mxPoint x="1730" y="990" />
              <mxPoint x="1730" y="90" />
            </Array>
          </mxGeometry>
        </mxCell>
        <mxCell id="IgVnPN9NRSkrWdJgGA2A-27" value="&lt;p&gt;&lt;font style=&quot;font-size: 18px;&quot; color=&quot;#ffffff&quot;&gt;PI 25&lt;/font&gt;&lt;/p&gt;&lt;p style=&quot;line-height: 100%;&quot;&gt;&lt;span style=&quot;color: rgb(255, 255, 255); background-color: initial;&quot;&gt;&lt;font style=&quot;font-size: 14px;&quot;&gt;Ends: November 2024&lt;/font&gt;&lt;/span&gt;&lt;/p&gt;" style="rounded=0;whiteSpace=wrap;html=1;fillColor=#3aadbc;movable=1;resizable=1;rotatable=1;deletable=1;editable=1;locked=0;connectable=1;" parent="1" vertex="1">
          <mxGeometry x="1480" y="-20" width="330" height="60" as="geometry" />
        </mxCell>
        <mxCell id="IgVnPN9NRSkrWdJgGA2A-35" value="&lt;p&gt;&lt;font style=&quot;font-size: 18px;&quot; color=&quot;#ffffff&quot;&gt;PI 26&lt;/font&gt;&lt;/p&gt;&lt;p style=&quot;line-height: 100%;&quot;&gt;&lt;span style=&quot;color: rgb(255, 255, 255); background-color: initial;&quot;&gt;&lt;font style=&quot;font-size: 14px;&quot;&gt;Ends: March 2025&lt;/font&gt;&lt;/span&gt;&lt;/p&gt;" style="rounded=0;whiteSpace=wrap;html=1;fillColor=#3aadbc;container=0;movable=0;resizable=0;rotatable=0;deletable=0;editable=0;locked=1;connectable=0;" parent="1" vertex="1">
          <mxGeometry x="1810" y="-20" width="330" height="60" as="geometry" />
        </mxCell>
        <mxCell id="pBIU8CeWxCqfokyOlO5Z-10" value="" style="edgeStyle=orthogonalEdgeStyle;rounded=0;orthogonalLoop=1;jettySize=auto;html=1;entryX=0;entryY=0.25;entryDx=0;entryDy=0;strokeWidth=1;exitX=1;exitY=0.5;exitDx=0;exitDy=0;startArrow=oval;startFill=1;" parent="1" source="IgVnPN9NRSkrWdJgGA2A-80" target="IgVnPN9NRSkrWdJgGA2A-61" edge="1">
          <mxGeometry relative="1" as="geometry">
            <Array as="points">
              <mxPoint x="1730" y="1040" />
              <mxPoint x="1730" y="90" />
            </Array>
            <mxPoint x="660" y="960" as="sourcePoint" />
            <mxPoint x="1440" y="90" as="targetPoint" />
          </mxGeometry>
        </mxCell>
        <mxCell id="43MLDUuVcQ6IggmY8hbu-3" value="&lt;font style=&quot;font-size: 14px;&quot;&gt;&lt;b style=&quot;font-size: 14px;&quot;&gt;CNPs for PAPSS, TCIB, ILF&lt;br style=&quot;font-size: 14px;&quot;&gt;&lt;/b&gt;&lt;/font&gt;" style="rounded=1;whiteSpace=wrap;html=1;fillColor=#8FD14F;fontSize=14;sketch=1;curveFitting=1;jiggle=2;fontColor=#000000;" parent="1" vertex="1">
          <mxGeometry x="960" y="600" width="390" height="40" as="geometry" />
        </mxCell>
        <mxCell id="pBIU8CeWxCqfokyOlO5Z-12" style="edgeStyle=orthogonalEdgeStyle;rounded=0;orthogonalLoop=1;jettySize=auto;html=1;entryX=0;entryY=0.5;entryDx=0;entryDy=0;strokeWidth=1;startArrow=oval;startFill=1;exitX=1;exitY=0.75;exitDx=0;exitDy=0;strokeColor=#B3B3B3;" parent="1" target="pBIU8CeWxCqfokyOlO5Z-7" edge="1">
          <mxGeometry relative="1" as="geometry">
            <mxPoint x="1110" y="430.58500000000004" as="sourcePoint" />
            <mxPoint x="1450" y="120" as="targetPoint" />
          </mxGeometry>
        </mxCell>
        <mxCell id="pBIU8CeWxCqfokyOlO5Z-13" style="edgeStyle=orthogonalEdgeStyle;rounded=0;orthogonalLoop=1;jettySize=auto;html=1;strokeWidth=3;entryX=0;entryY=0.25;entryDx=0;entryDy=0;exitX=1;exitY=0.25;exitDx=0;exitDy=0;" parent="1" source="IgVnPN9NRSkrWdJgGA2A-61" target="IgVnPN9NRSkrWdJgGA2A-89" edge="1">
          <mxGeometry relative="1" as="geometry">
            <mxPoint x="1520" y="90" as="sourcePoint" />
            <mxPoint x="1450" y="100" as="targetPoint" />
          </mxGeometry>
        </mxCell>
        <mxCell id="pBIU8CeWxCqfokyOlO5Z-14" style="edgeStyle=orthogonalEdgeStyle;rounded=0;orthogonalLoop=1;jettySize=auto;html=1;entryX=0;entryY=0.5;entryDx=0;entryDy=0;strokeWidth=1;startArrow=oval;startFill=1;exitX=0.818;exitY=-0.096;exitDx=0;exitDy=0;exitPerimeter=0;" parent="1" source="IgVnPN9NRSkrWdJgGA2A-40" target="jTy2H-9CaO5OAL5QqozL-3" edge="1">
          <mxGeometry relative="1" as="geometry">
            <mxPoint x="1240" y="1120" as="sourcePoint" />
            <mxPoint x="900" y="120" as="targetPoint" />
            <Array as="points">
              <mxPoint x="1240" y="110" />
            </Array>
          </mxGeometry>
        </mxCell>
        <mxCell id="IgVnPN9NRSkrWdJgGA2A-90" value="&lt;ol style=&quot;font-size: 14px;&quot;&gt;&lt;li style=&quot;font-size: 14px;&quot;&gt;&lt;span style=&quot;background-color: initial;&quot;&gt;Hub Portal Customisation&lt;/span&gt;&lt;br&gt;&lt;/li&gt;&lt;li style=&quot;font-size: 14px;&quot;&gt;Payment Manager Portal Customisation&lt;/li&gt;&lt;/ol&gt;" style="rounded=0;whiteSpace=wrap;html=1;align=left;fontSize=14;" parent="1" vertex="1">
          <mxGeometry x="2490" y="241" width="240" height="140" as="geometry" />
        </mxCell>
        <mxCell id="IgVnPN9NRSkrWdJgGA2A-91" value="&lt;font color=&quot;#f14725&quot;&gt;&lt;span style=&quot;font-size: 18px;&quot;&gt;&lt;b&gt;Candidate Workstreams for&lt;br&gt;Future Adoption&lt;/b&gt;&lt;/span&gt;&lt;/font&gt;" style="rounded=0;whiteSpace=wrap;html=1;fontColor=#f6f6f6;" parent="1" vertex="1">
          <mxGeometry x="2490" y="201" width="240" height="40" as="geometry" />
        </mxCell>
        <mxCell id="IgVnPN9NRSkrWdJgGA2A-92" value="&lt;ol style=&quot;font-size: 14px;&quot;&gt;&lt;li style=&quot;font-size: 14px;&quot;&gt;&lt;span style=&quot;background-color: initial;&quot;&gt;Bulk de-multiplex for Payee DFSP&lt;/span&gt;&lt;/li&gt;&lt;li style=&quot;font-size: 14px;&quot;&gt;ATM Cash Out (Productionise)&lt;/li&gt;&lt;li style=&quot;font-size: 14px;&quot;&gt;IVR Payments (DFSP-led)&lt;/li&gt;&lt;/ol&gt;" style="rounded=0;whiteSpace=wrap;html=1;align=left;fontSize=14;" parent="1" vertex="1">
          <mxGeometry x="2490" y="431" width="240" height="140" as="geometry" />
        </mxCell>
        <mxCell id="IgVnPN9NRSkrWdJgGA2A-93" value="&lt;font style=&quot;&quot;&gt;&lt;font style=&quot;&quot; color=&quot;#eea213&quot;&gt;&lt;b&gt;&lt;font style=&quot;font-size: 18px;&quot;&gt;Candidate&amp;nbsp;&lt;/font&gt;&lt;/b&gt;&lt;b style=&quot;font-size: 18px;&quot;&gt;Workstreams for&lt;br&gt;Future Adoption&lt;/b&gt;&lt;/font&gt;&lt;/font&gt;" style="rounded=0;whiteSpace=wrap;html=1;fontColor=#f6f6f6;" parent="1" vertex="1">
          <mxGeometry x="2490" y="391" width="240" height="40" as="geometry" />
        </mxCell>
        <mxCell id="IgVnPN9NRSkrWdJgGA2A-100" value="Candidate&amp;nbsp;Workstreams for&lt;br&gt;Future Adoption" style="rounded=0;whiteSpace=wrap;html=1;fontColor=#8FD14F;fontSize=18;fontStyle=1;startSize=100;" parent="1" vertex="1">
          <mxGeometry x="2490" y="581" width="240" height="40" as="geometry" />
        </mxCell>
        <mxCell id="IgVnPN9NRSkrWdJgGA2A-101" value="&lt;span style=&quot;border-color: var(--border-color); color: rgb(241, 110, 129);&quot;&gt;Candidate Workstreams for&lt;br&gt;Future Adoption&lt;/span&gt;" style="rounded=0;whiteSpace=wrap;html=1;fontColor=#8FD14F;fontSize=18;fontStyle=1;startSize=100;" parent="1" vertex="1">
          <mxGeometry x="2490" y="951" width="240" height="40" as="geometry" />
        </mxCell>
        <mxCell id="IgVnPN9NRSkrWdJgGA2A-102" value="" style="rounded=0;whiteSpace=wrap;html=1;align=left;fontSize=14;verticalAlign=top;" parent="1" vertex="1">
          <mxGeometry x="2490" y="991" width="240" height="250" as="geometry" />
        </mxCell>
        <mxCell id="Z8jQIP3AahJa8NpkoJpr-1" value="&lt;ol&gt;&lt;li&gt;&lt;font style=&quot;font-size: 14px;&quot;&gt;&lt;span style=&quot;background-color: initial;&quot;&gt;CBDC for Settlement&lt;/span&gt;&lt;br&gt;&lt;/font&gt;&lt;/li&gt;&lt;li&gt;&lt;span style=&quot;background-color: initial;&quot;&gt;&lt;font style=&quot;font-size: 14px;&quot;&gt;International Payments Addressing&lt;/font&gt;&lt;/span&gt;&lt;/li&gt;&lt;li&gt;&lt;span style=&quot;background-color: initial;&quot;&gt;&lt;font style=&quot;font-size: 14px;&quot;&gt;Aggregators as PEs&lt;/font&gt;&lt;/span&gt;&lt;/li&gt;&lt;/ol&gt;" style="rounded=0;whiteSpace=wrap;html=1;align=left;fontSize=12;" parent="1" vertex="1">
          <mxGeometry x="2490" y="621" width="240" height="310" as="geometry" />
        </mxCell>
        <mxCell id="pBIU8CeWxCqfokyOlO5Z-16" value="&lt;font color=&quot;#ffffff&quot; style=&quot;font-size: 14px;&quot;&gt;&lt;b style=&quot;font-size: 14px;&quot;&gt;Foreign Exchange&amp;nbsp;&lt;br style=&quot;font-size: 14px;&quot;&gt;Payment Manager DFSP (Common)&lt;br style=&quot;font-size: 14px;&quot;&gt;&lt;/b&gt;&lt;/font&gt;" style="rounded=1;whiteSpace=wrap;html=1;fillColor=#8FD14F;fontSize=14;" parent="1" vertex="1">
          <mxGeometry x="560" y="670" width="270" height="40" as="geometry" />
        </mxCell>
        <mxCell id="pBIU8CeWxCqfokyOlO5Z-17" value="" style="edgeStyle=orthogonalEdgeStyle;rounded=0;orthogonalLoop=1;jettySize=auto;html=1;entryX=0;entryY=0.5;entryDx=0;entryDy=0;exitX=1;exitY=0.5;exitDx=0;exitDy=0;strokeWidth=1;startArrow=oval;startFill=1;" parent="1" source="pBIU8CeWxCqfokyOlO5Z-16" target="IgVnPN9NRSkrWdJgGA2A-1" edge="1">
          <mxGeometry relative="1" as="geometry">
            <mxPoint x="840" y="743" as="sourcePoint" />
            <mxPoint x="900" y="120" as="targetPoint" />
          </mxGeometry>
        </mxCell>
        <mxCell id="pBIU8CeWxCqfokyOlO5Z-18" value="&lt;font color=&quot;#ffffff&quot; style=&quot;font-size: 14px;&quot;&gt;&lt;b style=&quot;font-size: 14px;&quot;&gt;Foreign Exchange&amp;nbsp;&lt;br style=&quot;font-size: 14px;&quot;&gt;Payment Manager FXP (Common)&lt;br style=&quot;font-size: 14px;&quot;&gt;&lt;/b&gt;&lt;/font&gt;" style="rounded=1;whiteSpace=wrap;html=1;fillColor=#8FD14F;fontSize=14;" parent="1" vertex="1">
          <mxGeometry x="560" y="830" width="270" height="40" as="geometry" />
        </mxCell>
        <mxCell id="pBIU8CeWxCqfokyOlO5Z-21" style="edgeStyle=orthogonalEdgeStyle;rounded=0;orthogonalLoop=1;jettySize=auto;html=1;entryX=0.088;entryY=0.575;entryDx=0;entryDy=0;exitX=1;exitY=0.5;exitDx=0;exitDy=0;entryPerimeter=0;" parent="1" source="pBIU8CeWxCqfokyOlO5Z-19" target="jTy2H-9CaO5OAL5QqozL-3" edge="1">
          <mxGeometry relative="1" as="geometry">
            <Array as="points">
              <mxPoint x="1400" y="890" />
              <mxPoint x="1400" y="116" />
            </Array>
          </mxGeometry>
        </mxCell>
        <mxCell id="sBQa-mhixUY7xPfQRwxI-1" style="edgeStyle=orthogonalEdgeStyle;rounded=0;orthogonalLoop=1;jettySize=auto;html=1;entryX=0;entryY=0.5;entryDx=0;entryDy=0;exitX=1;exitY=0.25;exitDx=0;exitDy=0;" parent="1" source="pBIU8CeWxCqfokyOlO5Z-2" target="IgVnPN9NRSkrWdJgGA2A-1" edge="1">
          <mxGeometry relative="1" as="geometry">
            <mxPoint x="840" y="561" as="sourcePoint" />
            <mxPoint x="900" y="510" as="targetPoint" />
          </mxGeometry>
        </mxCell>
        <mxCell id="sBQa-mhixUY7xPfQRwxI-2" style="edgeStyle=orthogonalEdgeStyle;rounded=0;orthogonalLoop=1;jettySize=auto;html=1;entryX=0;entryY=0.5;entryDx=0;entryDy=0;strokeWidth=1;startArrow=oval;startFill=1;exitX=0.506;exitY=-0.05;exitDx=0;exitDy=0;exitPerimeter=0;" parent="1" source="IgVnPN9NRSkrWdJgGA2A-103" target="IgVnPN9NRSkrWdJgGA2A-1" edge="1">
          <mxGeometry relative="1" as="geometry">
            <mxPoint x="870" y="1039" as="sourcePoint" />
            <mxPoint x="900" y="120" as="targetPoint" />
            <Array as="points">
              <mxPoint x="862" y="611" />
              <mxPoint x="860" y="611" />
              <mxPoint x="860" y="110" />
            </Array>
          </mxGeometry>
        </mxCell>
        <mxCell id="IgVnPN9NRSkrWdJgGA2A-40" value="&lt;font color=&quot;#ffffff&quot; style=&quot;font-size: 14px;&quot;&gt;&lt;b style=&quot;font-size: 14px;&quot;&gt;Core Team&lt;br style=&quot;font-size: 14px;&quot;&gt;(Current Codebase)&lt;br style=&quot;font-size: 14px;&quot;&gt;&lt;/b&gt;&lt;/font&gt;" style="rounded=1;whiteSpace=wrap;html=1;fillColor=#F16E81;fontSize=14;" parent="1" vertex="1">
          <mxGeometry x="250" y="1110" width="1210" height="40" as="geometry" />
        </mxCell>
        <mxCell id="sBQa-mhixUY7xPfQRwxI-3" style="edgeStyle=orthogonalEdgeStyle;rounded=0;orthogonalLoop=1;jettySize=auto;html=1;entryX=0;entryY=0.5;entryDx=0;entryDy=0;strokeWidth=1;startArrow=oval;startFill=1;exitX=1;exitY=0.5;exitDx=0;exitDy=0;" parent="1" source="IgVnPN9NRSkrWdJgGA2A-39" target="pBIU8CeWxCqfokyOlO5Z-1" edge="1">
          <mxGeometry relative="1" as="geometry">
            <mxPoint x="570" y="750" as="targetPoint" />
            <mxPoint x="530" y="680" as="sourcePoint" />
            <Array as="points">
              <mxPoint x="550" y="670" />
              <mxPoint x="550" y="793" />
            </Array>
          </mxGeometry>
        </mxCell>
        <mxCell id="sBQa-mhixUY7xPfQRwxI-4" style="edgeStyle=orthogonalEdgeStyle;rounded=0;orthogonalLoop=1;jettySize=auto;html=1;entryX=0;entryY=0.5;entryDx=0;entryDy=0;strokeWidth=1;startArrow=oval;startFill=1;exitX=1;exitY=0.5;exitDx=0;exitDy=0;" parent="1" source="IgVnPN9NRSkrWdJgGA2A-39" target="pBIU8CeWxCqfokyOlO5Z-18" edge="1">
          <mxGeometry relative="1" as="geometry">
            <mxPoint x="570" y="803" as="targetPoint" />
            <mxPoint x="530" y="680" as="sourcePoint" />
            <Array as="points">
              <mxPoint x="550" y="670" />
              <mxPoint x="550" y="850" />
            </Array>
          </mxGeometry>
        </mxCell>
        <mxCell id="sBQa-mhixUY7xPfQRwxI-5" style="edgeStyle=orthogonalEdgeStyle;rounded=0;orthogonalLoop=1;jettySize=auto;html=1;strokeWidth=1;startArrow=oval;startFill=1;exitX=1;exitY=0.5;exitDx=0;exitDy=0;" parent="1" source="IgVnPN9NRSkrWdJgGA2A-39" edge="1">
          <mxGeometry relative="1" as="geometry">
            <mxPoint x="560" y="690" as="targetPoint" />
            <mxPoint x="530" y="680" as="sourcePoint" />
            <Array as="points">
              <mxPoint x="550" y="670" />
              <mxPoint x="550" y="691" />
            </Array>
          </mxGeometry>
        </mxCell>
        <mxCell id="sBQa-mhixUY7xPfQRwxI-7" value="" style="edgeStyle=orthogonalEdgeStyle;rounded=0;orthogonalLoop=1;jettySize=auto;html=1;entryX=0;entryY=0.5;entryDx=0;entryDy=0;exitX=1;exitY=0.5;exitDx=0;exitDy=0;strokeWidth=1;startArrow=oval;startFill=1;" parent="1" source="pBIU8CeWxCqfokyOlO5Z-18" target="IgVnPN9NRSkrWdJgGA2A-1" edge="1">
          <mxGeometry relative="1" as="geometry">
            <mxPoint x="840" y="740" as="sourcePoint" />
            <mxPoint x="900" y="120" as="targetPoint" />
          </mxGeometry>
        </mxCell>
        <mxCell id="rpubGPMqXumcgfwPf0aL-4" style="edgeStyle=orthogonalEdgeStyle;rounded=0;orthogonalLoop=1;jettySize=auto;html=1;entryX=0;entryY=0.5;entryDx=0;entryDy=0;" edge="1" parent="1" source="rpubGPMqXumcgfwPf0aL-2" target="jTy2H-9CaO5OAL5QqozL-3">
          <mxGeometry relative="1" as="geometry">
            <Array as="points">
              <mxPoint x="1240" y="261" />
              <mxPoint x="1240" y="110" />
            </Array>
          </mxGeometry>
        </mxCell>
        <mxCell id="rpubGPMqXumcgfwPf0aL-2" value="&lt;font color=&quot;#ffffff&quot; style=&quot;font-size: 14px;&quot;&gt;&lt;b style=&quot;font-size: 14px;&quot;&gt;Participation Tools:&lt;br&gt;Payment Manager On-Prem&lt;br&gt;&lt;/b&gt;&lt;/font&gt;" style="rounded=1;whiteSpace=wrap;html=1;fillColor=#F14725;fontSize=14;" vertex="1" parent="1">
          <mxGeometry x="950" y="241" width="230" height="40" as="geometry" />
        </mxCell>
        <mxCell id="rpubGPMqXumcgfwPf0aL-3" style="edgeStyle=orthogonalEdgeStyle;rounded=0;orthogonalLoop=1;jettySize=auto;html=1;strokeWidth=1;startArrow=oval;startFill=1;exitX=1;exitY=0.75;exitDx=0;exitDy=0;entryX=0;entryY=0.5;entryDx=0;entryDy=0;" edge="1" parent="1" source="IgVnPN9NRSkrWdJgGA2A-62" target="rpubGPMqXumcgfwPf0aL-2">
          <mxGeometry relative="1" as="geometry">
            <Array as="points">
              <mxPoint x="830" y="310" />
              <mxPoint x="830" y="261" />
            </Array>
            <mxPoint x="900" y="120" as="targetPoint" />
            <mxPoint x="780" y="300" as="sourcePoint" />
          </mxGeometry>
        </mxCell>
        <mxCell id="pBIU8CeWxCqfokyOlO5Z-4" value="Range of work to make maintaining the vNow code base easier.&lt;span style=&quot;caret-color: rgb(33, 33, 33); color: rgb(33, 33, 33); font-family: Calibri, sans-serif; font-size: 14.6667px; text-align: start;&quot;&gt;&lt;/span&gt;" style="rounded=0;whiteSpace=wrap;html=1;" parent="1" vertex="1">
          <mxGeometry x="1410" y="130" width="130" height="60" as="geometry" />
        </mxCell>
        <mxCell id="pBIU8CeWxCqfokyOlO5Z-19" value="&lt;font color=&quot;#ffffff&quot; style=&quot;font-size: 14px;&quot;&gt;&lt;b style=&quot;font-size: 14px;&quot;&gt;Next Gen Settlement for vNow Codebase&lt;br style=&quot;font-size: 14px;&quot;&gt;&lt;/b&gt;&lt;/font&gt;" style="rounded=1;whiteSpace=wrap;html=1;fillColor=#8FD14F;fontSize=14;" parent="1" vertex="1">
          <mxGeometry x="840" y="870" width="360" height="40" as="geometry" />
        </mxCell>
        <mxCell id="pBIU8CeWxCqfokyOlO5Z-1" value="&lt;font color=&quot;#ffffff&quot; style=&quot;font-size: 14px;&quot;&gt;&lt;b style=&quot;font-size: 14px;&quot;&gt;Foreign Exchange&amp;nbsp;&lt;br style=&quot;font-size: 14px;&quot;&gt;vNext&lt;br style=&quot;font-size: 14px;&quot;&gt;&lt;/b&gt;&lt;/font&gt;" style="rounded=1;whiteSpace=wrap;html=1;fillColor=#8FD14F;fontSize=14;" parent="1" vertex="1">
          <mxGeometry x="560" y="773" width="410" height="40" as="geometry" />
        </mxCell>
        <mxCell id="43MLDUuVcQ6IggmY8hbu-1" value="&lt;font style=&quot;font-size: 14px;&quot;&gt;&lt;b style=&quot;font-size: 14px;&quot;&gt;FRMS PoC for Pilot or Live Mojaloop Deployment&lt;/b&gt;&lt;/font&gt;" style="rounded=1;whiteSpace=wrap;html=1;fillColor=#F14725;fontSize=14;gradientColor=none;glass=0;shadow=0;sketch=1;curveFitting=1;jiggle=2;fontColor=#000000;" parent="1" vertex="1">
          <mxGeometry x="960" y="310" width="680" height="40" as="geometry" />
        </mxCell>
        <mxCell id="IgVnPN9NRSkrWdJgGA2A-38" value="&lt;font color=&quot;#ffffff&quot; style=&quot;font-size: 14px;&quot;&gt;&lt;b style=&quot;font-size: 14px;&quot;&gt;Merchant Payments&lt;/b&gt;&lt;/font&gt;" style="rounded=1;whiteSpace=wrap;html=1;fillColor=#EEA213;fontSize=14;" parent="1" vertex="1">
          <mxGeometry x="250" y="460" width="520" height="40.78" as="geometry" />
        </mxCell>
        <mxCell id="IgVnPN9NRSkrWdJgGA2A-37" value="&lt;font color=&quot;#ffffff&quot; style=&quot;font-size: 14px;&quot;&gt;&lt;b style=&quot;font-size: 14px;&quot;&gt;Support for On Prem&lt;/b&gt;&lt;/font&gt;" style="rounded=1;whiteSpace=wrap;html=1;fillColor=#F14725;fontSize=14;" parent="1" vertex="1">
          <mxGeometry x="250" y="230" width="520" height="40" as="geometry" />
        </mxCell>
        <mxCell id="IgVnPN9NRSkrWdJgGA2A-62" value="&lt;font color=&quot;#ffffff&quot; style=&quot;font-size: 14px;&quot;&gt;&lt;b style=&quot;font-size: 14px;&quot;&gt;Participation Tools&lt;/b&gt;&lt;/font&gt;" style="rounded=1;whiteSpace=wrap;html=1;fillColor=#F14725;fontSize=14;" parent="1" vertex="1">
          <mxGeometry x="250" y="280" width="520" height="40" as="geometry" />
        </mxCell>
        <mxCell id="IgVnPN9NRSkrWdJgGA2A-75" value="&lt;font color=&quot;#ffffff&quot; style=&quot;font-size: 14px;&quot;&gt;&lt;b style=&quot;font-size: 14px;&quot;&gt;MOSIP Integration&lt;br style=&quot;font-size: 14px;&quot;&gt;&lt;/b&gt;&lt;/font&gt;" style="rounded=1;whiteSpace=wrap;html=1;fillColor=#8FD14F;fontSize=14;" parent="1" vertex="1">
          <mxGeometry x="250" y="600" width="520" height="40" as="geometry" />
        </mxCell>
      </root>
    </mxGraphModel>
  </diagram>
</mxfile>
